<mxfile host="65bd71144e">
    <diagram id="bHLFzZqyWx2OtI6zlnqh" name="Страница 1">
        <mxGraphModel dx="1036" dy="688" grid="1" gridSize="10" guides="1" tooltips="1" connect="1" arrows="1" fold="1" page="1" pageScale="1" pageWidth="827" pageHeight="1169" background="#ffffff" math="0" shadow="0">
            <root>
                <mxCell id="0"/>
                <mxCell id="1" parent="0"/>
                <mxCell id="2" style="edgeStyle=none;html=1;entryX=0.5;entryY=0;entryDx=0;entryDy=0;fontColor=#000000;strokeColor=#000000;strokeWidth=2;" edge="1" parent="1" source="3" target="5">
                    <mxGeometry relative="1" as="geometry"/>
                </mxCell>
                <mxCell id="3" value="&lt;font style=&quot;background-color: rgb(255, 255, 255);&quot; color=&quot;#000000&quot;&gt;Начало&lt;/font&gt;" style="rounded=1;whiteSpace=wrap;html=1;strokeWidth=2;strokeColor=#000000;fillColor=#FFFFFF;" vertex="1" parent="1">
                    <mxGeometry x="360" y="80" width="90" height="30" as="geometry"/>
                </mxCell>
                <mxCell id="4" style="edgeStyle=none;html=1;entryX=0.5;entryY=0;entryDx=0;entryDy=0;strokeColor=#000000;strokeWidth=2;fontFamily=Helvetica;fontSize=12;fontColor=#000000;" edge="1" parent="1" source="5" target="10">
                    <mxGeometry relative="1" as="geometry"/>
                </mxCell>
                <mxCell id="5" value="string [] ArreyOne&lt;br&gt;string&amp;nbsp;ArreyTwo" style="shape=parallelogram;perimeter=parallelogramPerimeter;whiteSpace=wrap;html=1;fixedSize=1;labelBackgroundColor=#FFFFFF;strokeColor=#000000;strokeWidth=2;fontColor=#000000;fillColor=#FFFFFF;" vertex="1" parent="1">
                    <mxGeometry x="317.5" y="160" width="172.5" height="60" as="geometry"/>
                </mxCell>
                <mxCell id="6" style="edgeStyle=none;html=1;entryX=0.5;entryY=1;entryDx=0;entryDy=0;strokeColor=#000000;strokeWidth=2;fontFamily=Helvetica;fontSize=12;fontColor=#000000;exitX=0;exitY=0.5;exitDx=0;exitDy=0;" edge="1" parent="1" source="7" target="12">
                    <mxGeometry relative="1" as="geometry">
                        <Array as="points">
                            <mxPoint x="160" y="455"/>
                        </Array>
                    </mxGeometry>
                </mxCell>
                <mxCell id="7" value="&lt;p style=&quot;line-height: 116%;&quot;&gt;&lt;/p&gt;&lt;p style=&quot;line-height: 118%;&quot;&gt;&lt;font style=&quot;font-size: 12px; background-color: rgb(255, 255, 255);&quot; color=&quot;#000000&quot;&gt;for (int i = 0; i &amp;nbsp;&amp;lt; ArrayOne.Length; i++)&lt;/font&gt;&lt;/p&gt;&lt;p&gt;&lt;/p&gt;" style="shape=hexagon;perimeter=hexagonPerimeter2;whiteSpace=wrap;html=1;fixedSize=1;labelBackgroundColor=#f3f1f1;strokeColor=#000000;strokeWidth=2;fontColor=#080808;fillColor=#FFFFFF;" vertex="1" parent="1">
                    <mxGeometry x="282.34" y="430" width="242.81" height="50" as="geometry"/>
                </mxCell>
                <mxCell id="8" style="edgeStyle=none;html=1;entryX=0.5;entryY=0;entryDx=0;entryDy=0;strokeColor=#000000;strokeWidth=2;fontFamily=Helvetica;fontSize=12;fontColor=#000000;" edge="1" parent="1" source="10" target="7">
                    <mxGeometry relative="1" as="geometry"/>
                </mxCell>
                <mxCell id="9" style="edgeStyle=none;html=1;entryX=0;entryY=0.5;entryDx=0;entryDy=0;strokeColor=#000000;strokeWidth=2;fontFamily=Helvetica;fontSize=12;fontColor=#000000;" edge="1" parent="1" source="10" target="16">
                    <mxGeometry relative="1" as="geometry"/>
                </mxCell>
                <mxCell id="10" value="&lt;div style=&quot;font-family: Consolas, &amp;quot;Courier New&amp;quot;, monospace; font-size: 14px; line-height: 100%;&quot;&gt;&lt;span style=&quot;background-color: rgb(255, 255, 255);&quot;&gt;ArrayOne[i].Length&lt;/span&gt;&lt;/div&gt;&lt;div style=&quot;font-family: Consolas, &amp;quot;Courier New&amp;quot;, monospace; font-size: 14px; line-height: 100%;&quot;&gt;&amp;lt;=&amp;nbsp;3&lt;/div&gt;" style="rhombus;whiteSpace=wrap;html=1;labelBackgroundColor=#FFFFFF;strokeColor=#000000;strokeWidth=2;fontFamily=Helvetica;fontSize=12;fontColor=#000000;fillColor=#FFFFFF;" vertex="1" parent="1">
                    <mxGeometry x="292.82" y="260" width="221.87" height="120" as="geometry"/>
                </mxCell>
                <mxCell id="11" style="edgeStyle=none;html=1;entryX=0;entryY=0.5;entryDx=0;entryDy=0;strokeColor=#000000;strokeWidth=2;fontFamily=Helvetica;fontSize=12;fontColor=#000000;" edge="1" parent="1" source="12" target="10">
                    <mxGeometry relative="1" as="geometry"/>
                </mxCell>
                <mxCell id="12" value="&lt;div style=&quot;font-family: Consolas, &amp;quot;Courier New&amp;quot;, monospace; font-size: 14px; line-height: 19px;&quot;&gt;&lt;span style=&quot;background-color: rgb(255, 255, 255);&quot;&gt;ArrayTwo[i]=ArrayOne[i];&lt;/span&gt;&lt;/div&gt;&lt;div style=&quot;font-family: Consolas, &amp;quot;Courier New&amp;quot;, monospace; font-size: 14px; line-height: 19px;&quot;&gt;&lt;span style=&quot;background-color: rgb(255, 255, 255);&quot;&gt;i++&lt;/span&gt;&lt;/div&gt;" style="rounded=0;whiteSpace=wrap;html=1;labelBackgroundColor=#FFFFFF;strokeColor=#000000;strokeWidth=2;fontFamily=Helvetica;fontSize=12;fontColor=#000000;fillColor=#FFFFFF;" vertex="1" parent="1">
                    <mxGeometry x="60" y="290" width="200" height="60" as="geometry"/>
                </mxCell>
                <mxCell id="13" value="Yes" style="text;html=1;align=center;verticalAlign=middle;resizable=0;points=[];autosize=1;strokeColor=none;fillColor=none;fontSize=12;fontFamily=Helvetica;fontColor=#000000;" vertex="1" parent="1">
                    <mxGeometry x="360" y="380" width="40" height="30" as="geometry"/>
                </mxCell>
                <mxCell id="14" value="No" style="text;html=1;align=center;verticalAlign=middle;resizable=0;points=[];autosize=1;strokeColor=none;fillColor=none;fontSize=12;fontFamily=Helvetica;fontColor=#000000;" vertex="1" parent="1">
                    <mxGeometry x="500" y="280" width="40" height="30" as="geometry"/>
                </mxCell>
                <mxCell id="15" style="edgeStyle=none;html=1;entryX=0.5;entryY=0;entryDx=0;entryDy=0;strokeColor=#000000;strokeWidth=2;fontFamily=Helvetica;fontSize=12;fontColor=#000000;exitX=0.498;exitY=0.888;exitDx=0;exitDy=0;exitPerimeter=0;" edge="1" parent="1" source="16" target="17">
                    <mxGeometry relative="1" as="geometry"/>
                </mxCell>
                <mxCell id="16" value="&lt;div style=&quot;font-family: Consolas, &amp;quot;Courier New&amp;quot;, monospace; font-size: 14px; line-height: 19px;&quot;&gt;&lt;span style=&quot;background-color: rgb(255, 255, 255);&quot;&gt;PrintArray&lt;/span&gt;&lt;/div&gt;&lt;div style=&quot;font-family: Consolas, &amp;quot;Courier New&amp;quot;, monospace; font-size: 14px; line-height: 19px;&quot;&gt;&lt;span style=&quot;background-color: rgb(255, 255, 255);&quot;&gt;(ArrayTwo)&lt;/span&gt;&lt;/div&gt;" style="shape=document;whiteSpace=wrap;html=1;boundedLbl=1;labelBackgroundColor=#FFFFFF;strokeColor=#000000;strokeWidth=2;fontFamily=Helvetica;fontSize=12;fontColor=#000000;fillColor=#FFFFFF;" vertex="1" parent="1">
                    <mxGeometry x="570" y="280" width="120" height="80" as="geometry"/>
                </mxCell>
                <mxCell id="17" value="Конец" style="ellipse;whiteSpace=wrap;html=1;labelBackgroundColor=#FFFFFF;strokeColor=#000000;strokeWidth=2;fontFamily=Helvetica;fontSize=12;fontColor=#000000;fillColor=#FFFFFF;" vertex="1" parent="1">
                    <mxGeometry x="585" y="390" width="90" height="50" as="geometry"/>
                </mxCell>
            </root>
        </mxGraphModel>
    </diagram>
</mxfile>